<?xml version="1.0" encoding="UTF-8"?>
<svg version="1.1" xmlns="http://www.w3.org/2000/svg" width="32" height="32">
<path d="M0 0 C3.8456052 2.01280613 6.27682441 4.22377854 7.7734375 8.2734375 C8.44588079 13.29154555 8.32924217 17.09769686 6.1484375 21.7109375 C2.91571056 25.19887972 0.06610055 27.05972212 -4.77490234 27.51098633 C-7.72277992 27.56830757 -10.65411783 27.53509901 -13.6015625 27.4609375 C-15.13490234 27.44063477 -15.13490234 27.44063477 -16.69921875 27.41992188 C-19.20888299 27.38473967 -21.7174434 27.33551289 -24.2265625 27.2734375 C-24.0615625 26.6753125 -23.8965625 26.0771875 -23.7265625 25.4609375 C-23.08713788 22.66345479 -22.92671857 20.87312535 -24.2265625 18.2734375 C-24.76973823 13.3225243 -24.74898199 9.37855565 -22.6015625 4.8359375 C-16.70288559 -1.52842443 -8.20007795 -2.67581491 0 0 Z " fill="#2A9AF3" transform="translate(24.2265625,2.7265625)"/>
</svg>
